<?xml version="1.0" standalone="no"?>
<!DOCTYPE svg PUBLIC "-//W3C//DTD SVG 20010904//EN" "http://www.w3.org/TR/2001/REC-SVG-20010904/DTD/svg10.dtd">
<!-- Created using Krita: http://krita.org -->
<svg xmlns="http://www.w3.org/2000/svg" 
    xmlns:xlink="http://www.w3.org/1999/xlink"
    xmlns:krita="http://krita.org/namespaces/svg/krita"
    xmlns:sodipodi="http://sodipodi.sourceforge.net/DTD/sodipodi-0.dtd"
    width="201.6pt"
    height="48pt"
    viewBox="0 0 201.6 48">
<defs/>
<rect id="shape0" transform="translate(1.06299298153885, 11.04)" fill="none" stroke="#000000" stroke-width="0.24" stroke-linecap="square" stroke-linejoin="bevel" width="45.6" height="32.16"/><text id="shape1" krita:useRichText="true" transform="matrix(1.00000001383386 0 0 0.999999954078332 160.461406069349 27.6678124307587)" fill="#000000" font-size="4" font-size-adjust="0.491746"><tspan x="0">Fin del juego</tspan></text><text id="shape0" krita:useRichText="true" transform="matrix(1.00000005873817 0 0 0.999999975096869 101.876561753012 13.8573440053271)" fill="#000000" font-size="3" font-size-adjust="0.491746"><tspan x="0">Puntos: 1</tspan></text><text id="shape01" krita:useRichText="true" transform="matrix(1.00000003358526 0 0 1.00000000704309 3.19252398870169 14.0928125079785)" fill="#000000" font-size="3" font-size-adjust="0.491746"><tspan x="0">Puntos: 0</tspan></text><rect id="shape1" transform="matrix(0.341112993840572 0 0 0.341112993840572 4.92140294069051 16.6628841225757)" fill="#074080" fill-rule="evenodd" stroke="#074080" stroke-width="0.24" stroke-linecap="square" stroke-linejoin="bevel" width="37.68" height="3.84"/><rect id="shape2" transform="matrix(0.341112993840572 0 0 0.341112993840572 30.7095452750377 16.6628841225757)" fill="#074080" fill-rule="evenodd" stroke="#074080" stroke-width="0.24" stroke-linecap="square" stroke-linejoin="bevel" width="34.8" height="4.56"/><rect id="shape3" transform="matrix(0.341112993840572 0 0 0.341112993840572 17.1196036004293 24.9314630932711)" fill="#074080" fill-rule="evenodd" stroke="#074080" stroke-width="0.24" stroke-linecap="square" stroke-linejoin="bevel" width="39.84" height="4.56"/><rect id="shape4" transform="matrix(0.341112993840572 0 0 0.341112993840572 4.75766870364704 34.4280488417926)" fill="#074080" fill-rule="evenodd" stroke="#074080" stroke-width="0.24" stroke-linecap="square" stroke-linejoin="bevel" width="41.76" height="4.32000000000001"/><rect id="shape5" transform="matrix(0.341112993840572 0 0 0.341112993840572 30.7914123935595 34.3461817232709)" fill="#074080" fill-rule="evenodd" stroke="#074080" stroke-width="0.24" stroke-linecap="square" stroke-linejoin="bevel" width="38.4" height="5.52"/><path id="shape6" transform="matrix(0.341112993840572 0 0 0.341112993840572 21.6626427943971 20.9848728994379)" fill="#ffff0a" fill-rule="evenodd" stroke="#ffff00" stroke-width="0.24" stroke-linecap="square" stroke-linejoin="bevel" d="M4.92172 0L3.01654 2.69901L0 2.69901L2.85777 4.92172L1.90518 7.77949L4.92172 5.08048L6.8269 7.77949L7.14443 5.08048L9.84344 2.85777L6.8269 2.69901L4.92172 0Z"/><rect id="shape7" transform="matrix(0.341112993840572 0 0 0.341112993840572 8.8510246297339 15.3530102262279)" fill="#fc0280" fill-rule="evenodd" stroke="#fc0280" stroke-width="0.24" stroke-linecap="square" stroke-linejoin="bevel" width="13.68" height="2.16"/><rect id="shape02" transform="matrix(0.341112988881877 0 0 0.341112993559406 35.4169046239551 33.0772413864876)" fill="#fc0280" fill-rule="evenodd" stroke="#fc0280" stroke-width="0.24" stroke-linecap="square" stroke-linejoin="bevel" width="13.68" height="2.16"/><rect id="shape03" transform="matrix(0.341112988881877 0 0 0.341112993559406 35.0894361498681 15.5576780228359)" fill="#fc0280" fill-rule="evenodd" stroke="#fc0280" stroke-width="0.24" stroke-linecap="square" stroke-linejoin="bevel" width="13.68" height="2.16"/><rect id="shape04" transform="matrix(0.341112988881877 0 0 0.341112993559406 21.2538931196946 23.9081241120531)" fill="#fc0280" fill-rule="evenodd" stroke="#fc0280" stroke-width="0.24" stroke-linecap="square" stroke-linejoin="bevel" width="13.68" height="2.16"/><rect id="shape05" transform="matrix(0.341112988881877 0 0 0.341112993559406 9.30129381552092 33.0772413864876)" fill="#fc0280" fill-rule="evenodd" stroke="#fc0280" stroke-width="0.24" stroke-linecap="square" stroke-linejoin="bevel" width="13.68" height="2.16"/><g id="group0" transform="matrix(0.168556302413967 0 0 0.168556302413967 23.8490289063834 35.724351839726)" fill="none">
  <circle id="shape8" transform="translate(3.6, 0)" r="3.6" cx="3.6" cy="3.6" fill="#e7bb9d" fill-rule="evenodd" stroke="#fc0280" stroke-width="0.24" stroke-linecap="square" stroke-linejoin="bevel"/>
  <ellipse id="shape9" transform="translate(5.4, 2.04)" rx="0.84" ry="1.32" cx="0.84" cy="1.32" fill="#ffffff" fill-rule="evenodd" stroke="#fc0280" stroke-width="0.24" stroke-linecap="square" stroke-linejoin="bevel"/>
  <ellipse id="shape10" transform="translate(7.8, 1.92)" rx="0.84" ry="1.44" cx="0.84" cy="1.44" fill="#ffffff" fill-rule="evenodd" stroke="#fc0280" stroke-width="0.24" stroke-linecap="square" stroke-linejoin="bevel"/>
  <path id="shape11" transform="translate(0, 6.72)" fill="#e7bb9d" fill-rule="evenodd" stroke="#fc0280" stroke-width="0.24" stroke-linecap="square" stroke-linejoin="bevel" d="M5.76 0L5.76 1.68L1.2 3.12L0 4.56L0.72 10.32L0 11.52L0.24 12.24L2.64 12.24L2.64 11.52L1.92 10.56L1.92 6L2.88 6L3.84 10.56L4.32 18.72L2.4 20.4L6.24 20.4L5.76 19.2L7.2 13.2L9.6 18.72L9.12 20.64L12.72 20.64L11.04 18.48L10.56 10.8L10.56 5.76L12 5.76L13.44 9.36L13.44 11.76L16.32 10.8L15.12 9.36L12.96 2.4L8.16 1.68L8.16 0.48L6 0.24Z"/>
 </g><rect id="shape06" transform="matrix(0.3411129959405 0 0 0.341112987431225 51.9614028212466 17.3828843326734)" fill="#074080" fill-rule="evenodd" stroke="#074080" stroke-width="0.24" stroke-linecap="square" stroke-linejoin="bevel" width="37.68" height="3.84"/><rect id="shape11" transform="matrix(0.3411129959405 0 0 0.341112987431225 77.7495453143484 17.3828843326734)" fill="#074080" fill-rule="evenodd" stroke="#074080" stroke-width="0.24" stroke-linecap="square" stroke-linejoin="bevel" width="34.8" height="4.56"/><rect id="shape2" transform="matrix(0.3411129959405 0 0 0.341112987431225 64.1596035560788 25.6514631480062)" fill="#074080" fill-rule="evenodd" stroke="#074080" stroke-width="0.24" stroke-linecap="square" stroke-linejoin="bevel" width="39.84" height="4.56"/><rect id="shape3" transform="matrix(0.3411129959405 0 0 0.341112987431225 51.7976685831951 35.1480487180915)" fill="#074080" fill-rule="evenodd" stroke="#074080" stroke-width="0.24" stroke-linecap="square" stroke-linejoin="bevel" width="41.76" height="4.32000000000001"/><rect id="shape4" transform="matrix(0.3411129959405 0 0 0.341112987431225 77.8314124333741 35.066181601108)" fill="#074080" fill-rule="evenodd" stroke="#074080" stroke-width="0.24" stroke-linecap="square" stroke-linejoin="bevel" width="38.4" height="5.52"/><path id="shape5" transform="matrix(0.3411129959405 0 0 0.341112987431225 68.702642778014 21.7048730283275)" fill="#ffff0a" fill-rule="evenodd" stroke="#ffff00" stroke-width="0.24" stroke-linecap="square" stroke-linejoin="bevel" d="M4.92172 0L3.01654 2.69901L0 2.69901L2.85777 4.92172L1.90518 7.77949L4.92172 5.08048L6.8269 7.77949L7.14443 5.08048L9.84344 2.85777L6.8269 2.69901Z"/><rect id="shape6" transform="matrix(0.3411129959405 0 0 0.341112987431225 55.8910245344811 16.0730104609375)" fill="#fc0280" fill-rule="evenodd" stroke="#fc0280" stroke-width="0.24" stroke-linecap="square" stroke-linejoin="bevel" width="13.68" height="2.16"/><rect id="shape07" transform="matrix(0.341112990981806 0 0 0.341112987150059 82.4569046922448 33.7972412881675)" fill="#fc0280" fill-rule="evenodd" stroke="#fc0280" stroke-width="0.24" stroke-linecap="square" stroke-linejoin="bevel" width="13.68" height="2.16"/><rect id="shape01" transform="matrix(0.341112990981806 0 0 0.341112987150059 82.1294362161419 16.2776782536999)" fill="#fc0280" fill-rule="evenodd" stroke="#fc0280" stroke-width="0.24" stroke-linecap="square" stroke-linejoin="bevel" width="13.68" height="2.16"/><rect id="shape02" transform="matrix(0.341112990981806 0 0 0.341112987150059 68.2938931007952 24.6281241860163)" fill="#fc0280" fill-rule="evenodd" stroke="#fc0280" stroke-width="0.24" stroke-linecap="square" stroke-linejoin="bevel" width="13.68" height="2.16"/><rect id="shape03" transform="matrix(0.341112990981806 0 0 0.341112987150059 56.3412937230401 33.7972412881675)" fill="#fc0280" fill-rule="evenodd" stroke="#fc0280" stroke-width="0.24" stroke-linecap="square" stroke-linejoin="bevel" width="13.68" height="2.16"/><g id="group0" transform="matrix(0.168556303451618 0 0 0.168556299246876 73.348490594177 19.7786810763027)" fill="none">
  <circle id="shape7" transform="translate(3.59999999999999, 0)" r="3.6" cx="3.6" cy="3.6" fill="#e7bb9d" fill-rule="evenodd" stroke="#fc0280" stroke-width="0.24" stroke-linecap="square" stroke-linejoin="bevel"/>
  <ellipse id="shape8" transform="translate(5.39999999999998, 2.04000000000002)" rx="0.84" ry="1.32" cx="0.84" cy="1.32" fill="#ffffff" fill-rule="evenodd" stroke="#fc0280" stroke-width="0.24" stroke-linecap="square" stroke-linejoin="bevel"/>
  <ellipse id="shape9" transform="translate(7.79999999999998, 1.92000000000001)" rx="0.84" ry="1.44" cx="0.84" cy="1.44" fill="#ffffff" fill-rule="evenodd" stroke="#fc0280" stroke-width="0.24" stroke-linecap="square" stroke-linejoin="bevel"/>
  <path id="shape10" transform="translate(-3.5527136788005e-15, 6.72)" fill="#e7bb9d" fill-rule="evenodd" stroke="#fc0280" stroke-width="0.24" stroke-linecap="square" stroke-linejoin="bevel" d="M5.76 0L5.76 1.68L1.2 3.12L0 4.56L0.72 10.32L0 11.52L0.24 12.24L2.64 12.24L2.64 11.52L1.92 10.56L1.92 6L2.88 6L3.84 10.56L4.32 18.72L2.4 20.4L6.24 20.4L5.76 19.2L7.2 13.2L9.6 18.72L9.12 20.64L12.72 20.64L11.04 18.48L10.56 10.8L10.56 5.76L12 5.76L13.44 9.36L13.44 11.76L16.32 10.8L15.12 9.36L12.96 2.4L8.16 1.68L8.16 0.48L6 0.24Z"/>
 </g><rect id="shape08" transform="matrix(0.3411129959405 0 0 0.341112987431225 100.937341186823 16.629594314132)" fill="#074080" fill-rule="evenodd" stroke="#074080" stroke-width="0.24" stroke-linecap="square" stroke-linejoin="bevel" width="37.68" height="3.84"/><rect id="shape12" transform="matrix(0.3411129959405 0 0 0.341112987431225 126.709545314348 16.6628843326734)" fill="#074080" fill-rule="evenodd" stroke="#074080" stroke-width="0.24" stroke-linecap="square" stroke-linejoin="bevel" width="34.8" height="4.56"/><rect id="shape21" transform="matrix(0.3411129959405 0 0 0.341112987431225 113.119603556079 24.9314631480062)" fill="#074080" fill-rule="evenodd" stroke="#074080" stroke-width="0.24" stroke-linecap="square" stroke-linejoin="bevel" width="39.84" height="4.56"/><rect id="shape31" transform="matrix(0.3411129959405 0 0 0.341112987431225 100.757668583195 34.4280487180915)" fill="#074080" fill-rule="evenodd" stroke="#074080" stroke-width="0.24" stroke-linecap="square" stroke-linejoin="bevel" width="41.76" height="4.32000000000001"/><rect id="shape41" transform="matrix(0.3411129959405 0 0 0.341112987431225 126.791412433374 34.346181601108)" fill="#074080" fill-rule="evenodd" stroke="#074080" stroke-width="0.24" stroke-linecap="square" stroke-linejoin="bevel" width="38.4" height="5.52"/><path id="shape51" transform="matrix(0.3411129959405 0 0 0.341112987431225 106.165047375962 29.6376887127043)" fill="#ffff0a" fill-rule="evenodd" stroke="#ffff00" stroke-width="0.24" stroke-linecap="square" stroke-linejoin="bevel" d="M4.92172 0L3.01654 2.69901L0 2.69901L2.85777 4.92172L1.90518 7.77949L4.92172 5.08048L6.8269 7.77949L7.14443 5.08048L9.84344 2.85777L6.8269 2.69901Z"/><rect id="shape61" transform="matrix(0.3411129959405 0 0 0.341112987431225 104.851024534481 15.3530104609375)" fill="#fc0280" fill-rule="evenodd" stroke="#fc0280" stroke-width="0.24" stroke-linecap="square" stroke-linejoin="bevel" width="13.68" height="2.16"/><rect id="shape09" transform="matrix(0.341112990981806 0 0 0.341112987150059 131.416904692245 33.0772412881675)" fill="#fc0280" fill-rule="evenodd" stroke="#fc0280" stroke-width="0.24" stroke-linecap="square" stroke-linejoin="bevel" width="13.68" height="2.16"/><rect id="shape011" transform="matrix(0.341112990981806 0 0 0.341112987150059 131.089436216142 15.5576782536999)" fill="#fc0280" fill-rule="evenodd" stroke="#fc0280" stroke-width="0.24" stroke-linecap="square" stroke-linejoin="bevel" width="13.68" height="2.16"/><rect id="shape021" transform="matrix(0.341112990981806 0 0 0.341112987150059 117.253893100795 23.9081241860163)" fill="#fc0280" fill-rule="evenodd" stroke="#fc0280" stroke-width="0.24" stroke-linecap="square" stroke-linejoin="bevel" width="13.68" height="2.16"/><rect id="shape031" transform="matrix(0.341112990981806 0 0 0.341112987150059 105.30129372304 33.0772412881675)" fill="#fc0280" fill-rule="evenodd" stroke="#fc0280" stroke-width="0.24" stroke-linecap="square" stroke-linejoin="bevel" width="13.68" height="2.16"/><g id="group01" transform="matrix(0.168556303451618 0 0 0.168556299246876 119.188490594177 18.5786810763027)" fill="none">
  <circle id="shape71" transform="translate(3.59999999999999, 0)" r="3.6" cx="3.6" cy="3.6" fill="#e7bb9d" fill-rule="evenodd" stroke="#fc0280" stroke-width="0.24" stroke-linecap="square" stroke-linejoin="bevel"/>
  <ellipse id="shape81" transform="translate(5.39999999999998, 2.04000000000002)" rx="0.84" ry="1.32" cx="0.84" cy="1.32" fill="#ffffff" fill-rule="evenodd" stroke="#fc0280" stroke-width="0.24" stroke-linecap="square" stroke-linejoin="bevel"/>
  <ellipse id="shape91" transform="translate(7.79999999999998, 1.92000000000001)" rx="0.84" ry="1.44" cx="0.84" cy="1.44" fill="#ffffff" fill-rule="evenodd" stroke="#fc0280" stroke-width="0.24" stroke-linecap="square" stroke-linejoin="bevel"/>
  <path id="shape101" transform="translate(-3.5527136788005e-15, 6.72)" fill="#e7bb9d" fill-rule="evenodd" stroke="#fc0280" stroke-width="0.24" stroke-linecap="square" stroke-linejoin="bevel" d="M5.76 0L5.76 1.68L1.2 3.12L0 4.56L0.72 10.32L0 11.52L0.24 12.24L2.64 12.24L2.64 11.52L1.92 10.56L1.92 6L2.88 6L3.84 10.56L4.32 18.72L2.4 20.4L6.24 20.4L5.76 19.2L7.2 13.2L9.6 18.72L9.12 20.64L12.72 20.64L11.04 18.48L10.56 10.8L10.56 5.76L12 5.76L13.44 9.36L13.44 11.76L16.32 10.8L15.12 9.36L12.96 2.4L8.16 1.68L8.16 0.48L6 0.24Z"/>
 </g><rect id="shape010" transform="matrix(1.00000002515291 0 0 0.999999968053779 50.0670306922854 11.0445315948744)" fill="none" stroke="#000000" stroke-width="0.24" stroke-linecap="square" stroke-linejoin="bevel" width="45.6" height="32.16"/><text id="shape011" krita:useRichText="true" transform="matrix(1.00000005873817 0 0 0.999999975096869 52.1965617530121 14.0973440053271)" fill="#000000" font-size="3" font-size-adjust="0.491746"><tspan x="0">Puntos: 0</tspan></text><rect id="shape012" transform="matrix(1.00000002515291 0 0 0.999999968053779 99.7470306922854 10.8045315948744)" fill="none" stroke="#000000" stroke-width="0.24" stroke-linecap="square" stroke-linejoin="bevel" width="45.6" height="32.16"/><rect id="shape013" transform="matrix(1.00000003689714 0 0 0.999999943715675 149.999999158745 10.8000009050519)" fill="none" stroke="#000000" stroke-width="0.24" stroke-linecap="square" stroke-linejoin="bevel" width="45.6" height="32.16"/>
</svg>
